# xmcd CD database file
#
# Track frame offsets:
#	150
#	9825
#	21730
#	33075
#	44102
#	56175
#	68342
#	81370
#	95700
#	107572
#	118960
#	132590
#	144115
#	154795
#	168255
#	180927
#	192540
#
# Disc length: 2727 seconds
#
# Revision: 1
# Processed by: cddbd v1.5.2PL0 Copyright (c) Steve Scherf et al.
# Submitted via: CDex 1.51
#
DISCID=e90aa511
DTITLE=Otis Redding - Groovin' Time
DYEAR=1900
DGENRE=Soul
TTITLE0=Respect
TTITLE1=Mary Had A Little Lamb
TTITLE2=Security
TTITLE3=Something Is Worrying Me
TTITLE4=Mr. Pitiful
TTITLE5=Fa-Fa-Fa-Fa-Fa
TTITLE6=My Girl
TTITLE7=Wonderful World
TTITLE8=I Can't Turn You Loose
TTITLE9=Don't Mess With Cupid
TTITLE10=I'm Coming Home
TTITLE11=Sweet Lorene
TTITLE12=You Left The Water Running
TTITLE13=Champagne and Wine
TTITLE14=Groovin' Time
TTITLE15=Merry Christmas Baby
TTITLE16=The Happy Song
EXTD=
EXTT0=
EXTT1=
EXTT2=
EXTT3=
EXTT4=
EXTT5=
EXTT6=
EXTT7=
EXTT8=
EXTT9=
EXTT10=
EXTT11=
EXTT12=
EXTT13=
EXTT14=
EXTT15=
EXTT16=
PLAYORDER=
